<mxfile host="app.diagrams.net" agent="Mozilla/5.0 (X11; Linux x86_64) AppleWebKit/537.36 (KHTML, like Gecko) Chrome/131.0.0.0 Safari/537.36" version="25.0.3">
  <diagram name="Page-1" id="nl1cgcMlkFiSKHjAn94r">
    <mxGraphModel dx="819" dy="407" grid="1" gridSize="10" guides="1" tooltips="1" connect="1" arrows="1" fold="1" page="1" pageScale="1" pageWidth="850" pageHeight="1100" math="0" shadow="0">
      <root>
        <mxCell id="0" />
        <mxCell id="1" parent="0" />
        <mxCell id="0P8FlNQfBklAbjoEWWRk-5" value="" style="edgeStyle=orthogonalEdgeStyle;rounded=0;orthogonalLoop=1;jettySize=auto;html=1;startArrow=classic;startFill=1;" edge="1" parent="1" source="0P8FlNQfBklAbjoEWWRk-1" target="0P8FlNQfBklAbjoEWWRk-3">
          <mxGeometry relative="1" as="geometry" />
        </mxCell>
        <mxCell id="0P8FlNQfBklAbjoEWWRk-1" value="Application" style="rounded=1;whiteSpace=wrap;html=1;fillColor=#f8cecc;strokeColor=#b85450;fontStyle=0;fontSize=15;" vertex="1" parent="1">
          <mxGeometry x="360" y="200" width="120" height="60" as="geometry" />
        </mxCell>
        <mxCell id="0P8FlNQfBklAbjoEWWRk-6" value="" style="edgeStyle=orthogonalEdgeStyle;rounded=0;orthogonalLoop=1;jettySize=auto;html=1;startArrow=classic;startFill=1;" edge="1" parent="1" source="0P8FlNQfBklAbjoEWWRk-3" target="0P8FlNQfBklAbjoEWWRk-4">
          <mxGeometry relative="1" as="geometry" />
        </mxCell>
        <mxCell id="0P8FlNQfBklAbjoEWWRk-3" value="Network" style="rounded=1;whiteSpace=wrap;html=1;fillColor=#fff2cc;strokeColor=#d6b656;fontStyle=0;fontSize=15;" vertex="1" parent="1">
          <mxGeometry x="360" y="290" width="120" height="60" as="geometry" />
        </mxCell>
        <mxCell id="0P8FlNQfBklAbjoEWWRk-4" value="Perception" style="rounded=1;whiteSpace=wrap;html=1;fillColor=#d5e8d4;strokeColor=#82b366;fontStyle=0;fontSize=15;" vertex="1" parent="1">
          <mxGeometry x="360" y="380" width="120" height="60" as="geometry" />
        </mxCell>
      </root>
    </mxGraphModel>
  </diagram>
</mxfile>
